# xmcd
#
# Track frame offsets:
#	150
#	13902
#	22095
#	35502
#	44515
#	59845
#	75465
#	87905
#	100105
#	110205
#	124015
#	131900
#	142475
#	156675
#	167897
#	181630
#	192577
#	205187
#	216162
#	227992
#	238240
#	252717
#	262345
#	270335
#
# Disc length: 3784 seconds
#
# Revision: 0
# Processed by: cddbd v1.5PL3 Copyright (c) Steve Scherf et al.
# Submitted via: dBpowerAMP V4.0
#
DISCID=830ec618
DTITLE=Dixie Aces - Volume 2
DYEAR=1900
DGENRE=
TTITLE0=Is it wrong
TTITLE1=Please don't stop loving me
TTITLE2=Guitars and caddilacs
TTITLE3=Stupid cupid
TTITLE4=The ways of a woman in love
TTITLE5=Honky tonk walking
TTITLE6=Cryin' time
TTITLE7=Sari Nande
TTITLE8=Queen for tonight
TTITLE9=Little Sister
TTITLE10=Hippy Hippy Shake
TTITLE11=Lipstick on your collar
TTITLE12=Dream baby
TTITLE13=Jeannie Jeannie Jeannie
TTITLE14=In the mood
TTITLE15=That'll  be the day
TTITLE16=Smoke along the track
TTITLE17=Mean woman blues
TTITLE18=Seven lonely days
TTITLE19=Running scared
TTITLE20=Devil woman
TTITLE21=Wheels
TTITLE22=Great balls of fire
TTITLE23=Big boss man
EXTD=
EXTT0=
EXTT1=
EXTT2=
EXTT3=
EXTT4=
EXTT5=
EXTT6=
EXTT7=
EXTT8=
EXTT9=
EXTT10=
EXTT11=
EXTT12=
EXTT13=
EXTT14=
EXTT15=
EXTT16=
EXTT17=
EXTT18=
EXTT19=
EXTT20=
EXTT21=
EXTT22=
EXTT23=
PLAYORDER=
